# xmcd CD database file
#
# Track frame offsets:
#	150
#	15225
#	31007
#	51612
#	69072
#	81662
#	96785
#	116012
#	131027
#	151580
#	170120
#
# Disc length: 2428 seconds
#
# Revision: 0
# Processed by: cddbd v1.5.1PL2 Copyright (c) Steve Scherf et al.
# Submitted via: CDex 1.51
#
DISCID=87097a0b
DTITLE=Caldi, Marcelo and Alexandre - intrometidos
DYEAR=1900
DGENRE=Jazz
TTITLE0=Santa Teresa
TTITLE1=Intrometido
TTITLE2=Choro pro Zé
TTITLE3=Xote
TTITLE4=Chegando cedo
TTITLE5=Nesse Tempo
TTITLE6=Choro seco
TTITLE7=Quando a vi (para Leticia)
TTITLE8=Um Tom para Jobim
TTITLE9=Paradiso
TTITLE10=Em polvorosa
EXTD=
EXTT0=
EXTT1=
EXTT2=
EXTT3=
EXTT4=
EXTT5=
EXTT6=
EXTT7=
EXTT8=
EXTT9=
EXTT10=
PLAYORDER=
